# xmcd
#
# Track frame offsets:
#	150
#	27210
#	43057
#	58600
#	77787
#	99622
#	116981
#	133405
#	149778
#	165405
#	180332
#	194757
#
# Disc length: 2745 seconds
#
# Revision: 0
# Processed by: cddbd v1.5.1PL0 Copyright (c) Steve Scherf et al.
# Submitted via: dBpowerAMP V4.0
#
DISCID=b40ab70c
DTITLE=Curly No Shoes Jr - Make Your Dreams Come True
DYEAR=2005
DGENRE=Blues
TTITLE0=You Ain't The One For Me
TTITLE1=Nuttin' But A Tear
TTITLE2=Live, Learn and Love
TTITLE3=It's Gonna Be Hell To Pay
TTITLE4=Hide Me From Myself
TTITLE5=I Sing The Blues
TTITLE6=Wanna Be A Better Man
TTITLE7=American Boy
TTITLE8=In Love With A Gypsy Woman
TTITLE9=Finally Found My Baby
TTITLE10=Make Your Dreams Come True
TTITLE11=The Path
EXTD=
EXTT0=
EXTT1=
EXTT2=
EXTT3=
EXTT4=
EXTT5=
EXTT6=
EXTT7=
EXTT8=
EXTT9=
EXTT10=
EXTT11=
PLAYORDER=
